<svg id="Layer_2" data-name="Layer 2" xmlns="http://www.w3.org/2000/svg" viewBox="0 0 100 100"><defs><style>.cls-1{fill:#1a223f;}</style></defs><path class="cls-1" d="M81.14,8.5H77V4a3,3,0,0,0-6,0V8.5H27V4a3,3,0,0,0-6,0V8.5H16.86A12.37,12.37,0,0,0,4.5,20.86V85.14A12.37,12.37,0,0,0,16.86,97.5H81.14A12.37,12.37,0,0,0,93.5,85.14V20.86A12.37,12.37,0,0,0,81.14,8.5ZM88.5,85.14a7.37,7.37,0,0,1-7.36,7.36H16.86A7.37,7.37,0,0,1,9.5,85.14V20.86a7.37,7.37,0,0,1,7.36-7.36H21v6a3,3,0,0,0,6,0v-6H71v6a3,3,0,0,0,6,0v-6h4.14a7.37,7.37,0,0,1,7.36,7.36Z"/><circle class="cls-1" cx="30" cy="36.5" r="4.5"/><circle class="cls-1" cx="49" cy="36.5" r="4.5"/><circle class="cls-1" cx="68" cy="36.5" r="4.5"/><circle class="cls-1" cx="30" cy="54.5" r="4.5"/><circle class="cls-1" cx="49" cy="54.5" r="4.5"/><circle class="cls-1" cx="68" cy="54.5" r="4.5"/><circle class="cls-1" cx="30" cy="72.5" r="4.5"/><circle class="cls-1" cx="49" cy="72.5" r="4.5"/><circle class="cls-1" cx="68" cy="72.5" r="4.5"/></svg>