<svg xmlns="http://www.w3.org/2000/svg" viewBox="0 0 100 100"><defs><style>.cls-1{fill:#00cce3;}.cls-2{fill:#073880;}</style></defs><g id="Icones"><g id="Necessidades_de_Ferro" data-name="Necessidades de Ferro"><path class="cls-1" d="M50,2.25A47.75,47.75,0,1,1,2.25,50,47.8,47.8,0,0,1,50,2.25m0-2A49.75,49.75,0,1,0,99.75,50,49.75,49.75,0,0,0,50,.25Z"/><path class="cls-2" d="M50,49.12A10.53,10.53,0,1,0,60.53,59.65,10.54,10.54,0,0,0,50,49.12Zm0,19.3a8.77,8.77,0,1,1,8.77-8.77A8.77,8.77,0,0,1,50,68.42Z"/><path class="cls-2" d="M45,28.9a.88.88,0,0,0-.56-1.66c-.23.08-5.72,2-9.33,12.83a.88.88,0,0,0,.56,1.11.86.86,0,0,0,1.11-.55C40.1,30.78,45,28.93,45,28.9Z"/><path class="cls-2" d="M50.88,17.54c-14.05,0-28.07,21.06-28.07,38.6,0,10.53,5.26,26.32,29.82,26.32,21.05,0,24.56-19.3,24.56-28.07C77.19,36.84,64.93,17.54,50.88,17.54ZM52.63,80.7c-25.33,0-28.07-17.17-28.07-24.56,0-17.56,13.77-36.84,26.32-36.84,12.39,0,24.56,17.38,24.56,35.09C75.44,58.78,74.34,80.7,52.63,80.7Z"/><circle class="cls-2" cx="34.23" cy="43.86" r="0.88"/></g></g></svg>