<svg xmlns="http://www.w3.org/2000/svg" viewBox="0 0 100 100"><defs><style>.cls-1{fill:#00cce3;}.cls-2{fill:#073880;}</style></defs><g id="Icones"><g id="Necessidades_de_Vitaminas" data-name="Necessidades de Vitaminas"><path class="cls-1" d="M50,2.25A47.75,47.75,0,1,1,2.25,50,47.8,47.8,0,0,1,50,2.25m0-2A49.75,49.75,0,1,0,99.75,50,49.75,49.75,0,0,0,50,.25Z"/><path class="cls-2" d="M56.87,36.85l-.2.06a22.87,22.87,0,0,1-5.9,1.82,10.94,10.94,0,0,1,2.09-7.79c2-2.49,5.52-3.75,10.3-3.75a.88.88,0,1,0,0-1.75c-5.34,0-9.27,1.48-11.66,4.4a12.6,12.6,0,0,0-2.49,9,11.23,11.23,0,0,1-3.82-1,15.26,15.26,0,0,0-9.37-1c-5.52.92-9.28,4.07-10.89,9.09-3,9.37,2.17,22.75,6.91,27.49s8.14,6.5,11,6.5a8.84,8.84,0,0,0,4-1.08c2.66-1.32,9.36-.39,11.77.09.53.08,13.18,1.6,16.78-21.79,1.13-7.33-.1-12.82-3.66-16.33C66.25,35.36,57.25,36.79,56.87,36.85Zm16.82,20C70.37,78.47,59.36,77.26,58.94,77.21s-9.1-1.79-12.84.08c-2.78,1.39-5.87,2-13-5.1-4.49-4.49-9.19-17.27-6.48-25.71,1.41-4.42,4.61-7.08,9.51-7.9a19,19,0,0,1,3.06-.27,13.29,13.29,0,0,1,5.38,1.17c2.82,1.11,5.49,2.16,12.71-.91,1-.13,8.69-1,13.28,3.5C73.67,45.17,74.73,50.15,73.69,56.88Z"/><path class="cls-2" d="M39.2,38.64c-.12,0-11.24,3.86-9.36,13.29a.89.89,0,0,0,.86.7.47.47,0,0,0,.17,0,.86.86,0,0,0,.69-1c-1.58-7.9,7.79-11.14,8.19-11.27a.88.88,0,0,0-.55-1.67Z"/><circle class="cls-2" cx="31.58" cy="54.39" r="0.88"/><path class="cls-2" d="M42.71,31.75a7.93,7.93,0,0,0,2.72.48,6.75,6.75,0,0,0,3.27-.78.84.84,0,0,0,.41-.62A10.5,10.5,0,0,0,47,22.56c-4.46-5.7-14.08-6.73-14.49-6.77a.88.88,0,0,0-.78.34.9.9,0,0,0-.13.84C34.64,25.24,38.37,30.21,42.71,31.75Zm2.95-8.11a8.7,8.7,0,0,1,1.77,6.48,5.86,5.86,0,0,1-4.19,0c-2.48-.9-6.08-3.79-9.43-12.32C36.57,18.26,42.61,19.76,45.66,23.64Z"/></g></g></svg>