<?xml version="1.0" encoding="utf-8"?>
<!-- Generator: Adobe Illustrator 25.3.0, SVG Export Plug-In . SVG Version: 6.00 Build 0)  -->
<svg version="1.1" id="Livello_1" xmlns="http://www.w3.org/2000/svg" xmlns:xlink="http://www.w3.org/1999/xlink" x="0px" y="0px"
	 viewBox="0 0 128 128" style="enable-background:new 0 0 128 128;" xml:space="preserve">
<style type="text/css">
	.st0{fill:#143C8D;}
</style>
<g>
	<path class="st0" d="M102.1,15.6c-21.2-20.7-55.1-20.7-76.3,0C15.7,25.6,10,39.4,10,53.7c-0.1,14.8,5.7,29,16.2,39.4L59.1,126
		c1.3,1.3,3.1,2,4.9,2c1.8,0,3.6-0.7,4.9-2.1l32.9-32.8c10.5-10.4,16.3-24.6,16.2-39.4C118,39.4,112.3,25.6,102.1,15.6z M97.5,88.9
		l-32.9,32.8c0,0,0,0,0,0c-0.4,0.3-0.9,0.3-1.3,0L30.5,88.9c-9.4-9.3-14.6-22-14.5-35.2c0-12.7,5-24.9,14.1-33.9
		C39.1,10.9,51.3,6,64,6c12.7,0,24.9,4.9,33.9,13.8C107,28.8,112,41,112,53.7C112.1,66.9,106.9,79.6,97.5,88.9z"/>
	<path class="st0" d="M64,26.9c-15,0-27.3,12.2-27.3,27.2c0,15,12.2,27.3,27.2,27.3c7.2,0,14.2-2.9,19.3-8c5.1-5.1,8-12,8-19.2
		C91.3,39.1,79.1,26.9,64,26.9z M64.1,75.4c-11.7,0-21.3-9.5-21.3-21.2c0-11.7,9.5-21.3,21.2-21.3c5.6,0,11.1,2.2,15.1,6.2
		c4,4,6.2,9.4,6.2,15C85.3,65.9,75.8,75.4,64.1,75.4z"/>
</g>
</svg>
