<svg id="Icones" xmlns="http://www.w3.org/2000/svg" viewBox="0 0 90 90"><defs><style>.cls-1{fill:#003d8d;}</style></defs><g id="Vacinas"><path class="cls-1" d="M54.77,32.55l-5.69,0,0-9.87h1.71a.95.95,0,1,0,0-1.9H48.1l-6.64,0H38.8a1,1,0,1,0,0,1.9h1.7l0,9.87H35.22a1,1,0,0,0,0,1.9h3.11A3.3,3.3,0,0,0,38,36v2.64a.91.91,0,0,0-.09.41.9.9,0,0,0,.09.4v5.07a1.12,1.12,0,0,0-.09.41,1,1,0,0,0,.1.41V49.5a3.4,3.4,0,0,0,2,3.09v3.34a2.84,2.84,0,0,0,2.85,2.84H44l0,9.49a1,1,0,0,0,1.9,0l0-9.49h.94a2.84,2.84,0,0,0,2.84-2.85V52.52a3.42,3.42,0,0,0,1.89-3.06l0-13.5a3.29,3.29,0,0,0-.36-1.5h3.59a1,1,0,0,0,0-1.9ZM47.16,22.7l0,9.87H42.44l0-9.87Zm.65,33.21a1,1,0,0,1-1,1h-4a.94.94,0,0,1-.95-.94v-3H47.8ZM49.66,36l0,13.5A1.51,1.51,0,0,1,48.19,51H41.42a1.51,1.51,0,0,1-1.51-1.5V45.87h3.7a.95.95,0,1,0,0-1.89H39.9V40h3.32a.95.95,0,1,0,0-1.9H39.89V36a1.51,1.51,0,0,1,1.5-1.51h6.77A1.51,1.51,0,0,1,49.66,36Z"/></g></svg>