<svg id="Icones" xmlns="http://www.w3.org/2000/svg" viewBox="0 0 95 95"><defs><style>.cls-1{fill:#003d8d;}</style></defs><g id="Exames"><path class="cls-1" d="M62.75,56a1.54,1.54,0,0,0-2,.23c-3,3.18-6.42,6.56-10.08,10.14l-2.07,2a1.59,1.59,0,0,1-2.2,0l-2.29-2.23c-10.63-10.36-19.82-19.31-19.82-27,0-8.46,7.12-10.69,10.88-10.69,2.39,0,6.89.77,10.19,6a2.54,2.54,0,0,0,2.14,1.17h0a2.53,2.53,0,0,0,2.14-1.16c3.33-5.19,7.81-6,10.19-6,5.24,0,10.87,3.34,10.87,10.67a10.35,10.35,0,0,1-.25,2.22,1.47,1.47,0,0,0,.9,1.65l.13.06a1.43,1.43,0,0,0,1.26,0,1.48,1.48,0,0,0,.79-1,13.32,13.32,0,0,0,.32-2.89c0-9.08-7-13.83-14-13.83a14.76,14.76,0,0,0-11.15,5,1.58,1.58,0,0,1-1.19.55h0a1.58,1.58,0,0,1-1.19-.55,14.72,14.72,0,0,0-11.14-5c-7,0-14,4.76-14,13.85s9.2,18,20.86,29.36l3.7,3.63a2.58,2.58,0,0,0,3.6,0l3.48-3.41C56.5,65.08,60,61.63,63.06,58.38a1.56,1.56,0,0,0,.4-1.2A1.65,1.65,0,0,0,62.75,56Z"/><path class="cls-1" d="M76,46.5H69a1.49,1.49,0,0,0-1.39.94L67,49l-2.61-6.52a1.5,1.5,0,0,0-2.64-.27L58.2,47.5H47a1.5,1.5,0,0,0,0,3H59a1.5,1.5,0,0,0,1.25-.67l2.42-3.63,2.94,7.36a1.5,1.5,0,0,0,2.78,0L70,49.5h6a1.5,1.5,0,0,0,0-3Z"/></g></svg>