<svg xmlns="http://www.w3.org/2000/svg" viewBox="0 0 100 100"><defs><style>.cls-1{fill:#00cce3;}.cls-2{fill:#073880;}</style></defs><g id="Icones"><g id="Sensibilidade_ao_Sódio" data-name="Sensibilidade ao Sódio"><path class="cls-1" d="M50,2.25A47.75,47.75,0,1,1,2.25,50,47.8,47.8,0,0,1,50,2.25m0-2A49.75,49.75,0,1,0,99.75,50,49.75,49.75,0,0,0,50,.25Z"/><path class="cls-2" d="M66.6,19.65a4.57,4.57,0,0,0-6.46,0l-23,24.45a3.26,3.26,0,0,0,0,4.75L49.38,61.15a4,4,0,0,0,1.44.87,3.17,3.17,0,0,0,1,.16,3.2,3.2,0,0,0,2.28-1L79.61,39.11a4.55,4.55,0,0,0,0-6.44ZM78.42,37.83l-25.49,22,0,0a1.52,1.52,0,0,1-2.27,0L38.34,47.63a1.51,1.51,0,0,1,0-2.29l23-24.45a2.8,2.8,0,0,1,4,0l13,13A2.79,2.79,0,0,1,78.42,37.83Z"/><path class="cls-2" d="M49.44,63.36c-8.46,7-11.8,3.39-16-1.24-.68-.74-1.37-1.49-2.09-2.21a4.39,4.39,0,0,1-1.42-3.45c.21-3.76,4.81-7.49,4.86-7.53a.86.86,0,0,0,.13-1.23.87.87,0,0,0-1.23-.14c-.21.17-5.26,4.26-5.51,8.8a6.1,6.1,0,0,0,1.93,4.79c.7.7,1.38,1.43,2,2.16,2.6,2.85,5.26,5.77,9.15,5.76,2.49,0,5.49-1.19,9.29-4.36a.88.88,0,0,0,.11-1.24A.87.87,0,0,0,49.44,63.36Z"/><path class="cls-2" d="M74,35.3,51.19,54.59a.89.89,0,0,0-.11,1.24.92.92,0,0,0,.68.31.87.87,0,0,0,.56-.21l22.81-19.3a.87.87,0,0,0,.1-1.23A.86.86,0,0,0,74,35.3Z"/><circle class="cls-2" cx="32.02" cy="74.12" r="1.32"/><circle class="cls-2" cx="42.54" cy="82.89" r="1.32"/><circle class="cls-2" cx="39.04" cy="77.63" r="1.32"/><path class="cls-2" d="M31.24,80.08a1.32,1.32,0,1,0,1.84.28A1.31,1.31,0,0,0,31.24,80.08Z"/><path class="cls-2" d="M42.76,65.52a1.31,1.31,0,1,0-1.49,1.11A1.32,1.32,0,0,0,42.76,65.52Z"/><path class="cls-2" d="M38.39,61.2a1.31,1.31,0,1,0-1.49,1.12A1.32,1.32,0,0,0,38.39,61.2Z"/><path class="cls-2" d="M31.42,56.51a1.31,1.31,0,1,0,1.49-1.11A1.3,1.3,0,0,0,31.42,56.51Z"/></g></g></svg>