<svg id="Icones" xmlns="http://www.w3.org/2000/svg" viewBox="0 0 95 95"><defs><style>.cls-1{fill:#fff;}.cls-2{fill:#003d8d;}</style></defs><g id="Atendimento_Domiciliar" data-name="Atendimento Domiciliar"><circle class="cls-1" cx="47.5" cy="47.5" r="47"/><path class="cls-2" d="M61.48,72.5h-28a6,6,0,0,1-6-6V40.77c0-3.18,1.06-4.88,4.52-7.28L46.25,22.75a1.26,1.26,0,0,1,1.46,0l16.5,11.5.06,0c2.5,2,3.23,3.41,3.23,6.51V66.48A6,6,0,0,1,61.48,72.5ZM47,25.29,33.5,35.5l0,0C30.33,37.7,30,38.79,30,40.77V66.48A3.53,3.53,0,0,0,33.52,70h28A3.53,3.53,0,0,0,65,66.48V40.77c0-2.17-.28-3-2.24-4.51Z"/></g></svg>