<svg id="Icones" xmlns="http://www.w3.org/2000/svg" viewBox="0 0 95 95"><defs><style>.cls-1{fill:#fff;}.cls-2{fill:#003d8d;}</style></defs><g id="Novidades"><circle class="cls-1" cx="47.5" cy="47.5" r="47"/><path class="cls-2" d="M62.92,54.15a1.89,1.89,0,0,1-1.42-.41.94.94,0,0,1-.16-.61,1.42,1.42,0,0,0,0-.36v-9c0-4-1.19-7.1-3.55-9.33a12.64,12.64,0,0,0-5.39-2.91,6,6,0,0,0-1-4.2,5,5,0,0,0-4.25-1.81,4.71,4.71,0,0,0-4.11,1.8,6,6,0,0,0-.7,4.49,12.48,12.48,0,0,0-6.25,3.89c-4,4.69-3,11.51-2.58,14.8a14.27,14.27,0,0,1,.16,1.45c0,.59,0,1,.05,1.41v.12h-.91a5,5,0,0,0-5.29,5.28c0,4.19,3.69,5.29,5.63,5.29H40.6A6.17,6.17,0,0,0,42,67.5a6.63,6.63,0,0,0,5.22,2c4.9,0,6.75-3.11,7.21-5.46h7.79a5.26,5.26,0,0,0,3.88-1.37,4.41,4.41,0,0,0,1.26-3.18C67.38,57,65.55,54.15,62.92,54.15ZM45.09,28.68a2.49,2.49,0,0,1,2.15-.79,2.81,2.81,0,0,1,2.34.86,3.56,3.56,0,0,1,.5,2.31,14.1,14.1,0,0,0-2.22-.1,24.71,24.71,0,0,0-3.09.3A3.71,3.71,0,0,1,45.09,28.68Zm2.15,38.43a4.39,4.39,0,0,1-3.41-1.18A3.54,3.54,0,0,1,43,64h9C51.6,65.32,50.48,67.11,47.24,67.11ZM64.44,61a3.11,3.11,0,0,1-2.2.68h-29c-.33,0-3.23-.08-3.23-2.9a2.65,2.65,0,0,1,2.89-2.89c1.51,0,2.27,0,2.85-.62a2.49,2.49,0,0,0,.44-2.05c0-.33-.05-.75-.05-1.26A14.11,14.11,0,0,0,36,50.16c-.43-3.17-1.22-9.06,2-12.94a10.61,10.61,0,0,1,5.78-3.32h.11a1.16,1.16,0,0,0,.4-.07,1,1,0,0,0,.21-.1A22.43,22.43,0,0,1,48,33.35h.31a14.36,14.36,0,0,1,2.2.19,1.11,1.11,0,0,0,.27.12,1.35,1.35,0,0,0,.49,0,10.46,10.46,0,0,1,5,2.48c1.86,1.76,2.8,4.31,2.8,7.59V52.5a3.51,3.51,0,0,0,.61,2.71,4,4,0,0,0,3.31,1.33c1,0,2.06,1.49,2.06,3A2.05,2.05,0,0,1,64.44,61Z"/><path class="cls-2" d="M59.87,32.62s4,1.36,4.59,9.17a1.2,1.2,0,0,0,1.19,1.11h.09a1.2,1.2,0,0,0,1.1-1.29c-.73-9.59-6.09-11.22-6.32-11.29a1.2,1.2,0,1,0-.65,2.3Z"/><path class="cls-2" d="M29.41,42.9h.09a1.19,1.19,0,0,0,1.19-1.11c.6-7.77,4.41-9.11,4.61-9.17a1.2,1.2,0,0,0-.67-2.3c-.23.07-5.58,1.7-6.32,11.29A1.2,1.2,0,0,0,29.41,42.9Z"/></g></svg>