<svg id="Icones" xmlns="http://www.w3.org/2000/svg" viewBox="0 0 95 95"><defs><style>.cls-1{fill:#fff;}.cls-2{fill:#003d8d;}</style></defs><g id="Teste_Covid" data-name="Teste Covid"><circle class="cls-1" cx="47.5" cy="47.5" r="47"/><path class="cls-2" d="M68.24,46.67h-2.1a27.24,27.24,0,0,0-5-11.48L63,33.53a1.1,1.1,0,1,0-1.47-1.65l-1.88,1.67a15.07,15.07,0,0,0-10.94-4.4V26.62a1.11,1.11,0,0,0-2.21,0v2.66a28.69,28.69,0,0,0-7.46,2,1.11,1.11,0,0,0,.82,2.06c6.29-2.54,11.56-2.6,15.66-.19,7.15,4.21,8.54,14.68,8.55,14.78a1.1,1.1,0,0,0,1.1,1h3a1.11,1.11,0,1,0,0-2.21Z"/><path class="cls-2" d="M29,33.12a1.1,1.1,0,0,0,.78-.32l3.32-3.32a1.12,1.12,0,0,0,0-1.57,1.1,1.1,0,0,0-1.56,0l-3.32,3.32a1.12,1.12,0,0,0,0,1.57A1.13,1.13,0,0,0,29,33.12Z"/><path class="cls-2" d="M65.38,61.79l-3.31,3.32a1.09,1.09,0,0,0,0,1.56,1.07,1.07,0,0,0,.78.33,1.1,1.1,0,0,0,.78-.33L67,63.35a1.1,1.1,0,0,0,0-1.56A1.12,1.12,0,0,0,65.38,61.79Z"/><path class="cls-2" d="M23.86,44.32a1.11,1.11,0,0,0-1.11,1.11v4.14a1.11,1.11,0,1,0,2.21,0V45.43A1.11,1.11,0,0,0,23.86,44.32Z"/><path class="cls-2" d="M71.14,44.32A1.11,1.11,0,0,0,70,45.43v4.14a1.11,1.11,0,1,0,2.21,0V45.43A1.11,1.11,0,0,0,71.14,44.32Z"/><path class="cls-2" d="M49.57,70H45.43a1.11,1.11,0,1,0,0,2.21h4.14a1.11,1.11,0,1,0,0-2.21Z"/><path class="cls-2" d="M45.43,25h4.14a1.11,1.11,0,1,0,0-2.21H45.43a1.11,1.11,0,1,0,0,2.21Z"/><path class="cls-2" d="M64.83,32.93a1.11,1.11,0,1,0,1.57-1.56l-3.05-3a1.1,1.1,0,0,0-1.56,1.56Z"/><path class="cls-2" d="M29.89,61.79a1.1,1.1,0,0,0-1.56,1.56l3,3.05a1.13,1.13,0,0,0,.78.32,1.11,1.11,0,0,0,.78-1.89Z"/><path class="cls-2" d="M38.51,55.1a3,3,0,1,0,3-3A3.05,3.05,0,0,0,38.51,55.1Zm3.87,0a.83.83,0,1,1-.83-.82A.83.83,0,0,1,42.38,55.1Z"/><path class="cls-2" d="M62.8,62.8a1.1,1.1,0,0,0,0-1.56L61.56,60a18.55,18.55,0,0,0,4.14-6.91,1.11,1.11,0,1,0-2.11-.67c-1.74,5.52-7.16,10.31-13.17,11.67a15.09,15.09,0,0,1-14.68-4.75s0,0,0,0l0,0-.08-.09c-4.28-4.61-5.56-9.92-3.78-15.76a23.16,23.16,0,0,1,4.08-7.65,1.1,1.1,0,0,0,0-1.46l-2.21-2.49A1.1,1.1,0,0,0,32,33.3l1.59,1.8a25.62,25.62,0,0,0-3.9,7.61,20,20,0,0,0-.78,3.82H27.17a1.11,1.11,0,0,0,0,2.21h1.67a17.61,17.61,0,0,0,4.55,11.31L32.2,61.24a1.1,1.1,0,0,0,0,1.56,1.09,1.09,0,0,0,.78.32,1.07,1.07,0,0,0,.78-.32l1.16-1.15a17.3,17.3,0,0,0,11.61,5v1.15a1.11,1.11,0,0,0,2.21,0V66.6a20.23,20.23,0,0,0,2.16-.35A20.86,20.86,0,0,0,60,61.54l1.27,1.26a1.07,1.07,0,0,0,.78.32A1.09,1.09,0,0,0,62.8,62.8Z"/><path class="cls-2" d="M40,37.5A4.5,4.5,0,1,0,44.5,42,4.49,4.49,0,0,0,40,37.5Zm0,7A2.5,2.5,0,1,1,42.5,42,2.5,2.5,0,0,1,40,44.5Z"/><path class="cls-2" d="M48.45,53.71a5.3,5.3,0,1,0,5.29-5.3A5.29,5.29,0,0,0,48.45,53.71Zm5.29-3.3a3.3,3.3,0,1,1-3.29,3.3A3.3,3.3,0,0,1,53.74,50.41Z"/><path class="cls-2" d="M57,40a3,3,0,1,0-3,3A3,3,0,0,0,57,40Zm-4,0a1,1,0,1,1,1,1A1,1,0,0,1,53,40Z"/></g></svg>