<svg id="Icones" xmlns="http://www.w3.org/2000/svg" viewBox="0 0 95 95"><defs><style>.cls-1{fill:#fff;}.cls-2{fill:#003d8d;}</style></defs><g id="Testes_Genétios" data-name="Testes Genétios"><circle class="cls-1" cx="47.5" cy="47.5" r="47"/><path class="cls-2" d="M47.74,38.23c4.37,1.74,7.09,4.43,7.68,7.56s-1.07,7-4.76,10.43a1,1,0,0,0,0,1.41,1,1,0,0,0,1.4,0c4.2-3.94,6.11-8.3,5.36-12.26s-3.88-7-8.9-9c-9.17-3.67-9.32-11.67-9.33-12a1,1,0,1,0-2,0,14.22,14.22,0,0,0,1.34,5.38A16.43,16.43,0,0,0,47.74,38.23Z"/><path class="cls-2" d="M47.21,57c-4.36-1.74-7.09-4.43-7.68-7.56s1.07-7,4.76-10.44a1,1,0,0,0,.05-1.4,1,1,0,0,0-1.41,0c-4.2,3.94-6.1,8.29-5.36,12.26s3.89,7,8.91,9c9.16,3.66,9.32,11.66,9.32,12a1,1,0,0,0,2,0,14.38,14.38,0,0,0-1.33-5.39A16.48,16.48,0,0,0,47.21,57Z"/><path class="cls-2" d="M50.31,34.47a1,1,0,0,0,.54,1.84.91.91,0,0,0,.52-.16A13.25,13.25,0,0,0,57.8,24a1,1,0,0,0-1.09-.88,1,1,0,0,0-.89,1.09A11.27,11.27,0,0,1,50.31,34.47Z"/><path class="cls-2" d="M45.18,60.53a1,1,0,0,0-1.06-1.69A13.29,13.29,0,0,0,37.69,71a1,1,0,0,0,1,.89h.1a1,1,0,0,0,.89-1.09A11.32,11.32,0,0,1,45.18,60.53Z"/><path class="cls-2" d="M41.52,27.1H54.2a1,1,0,1,0,0-2H41.52a1,1,0,1,0,0,2Z"/><path class="cls-2" d="M40.52,47.5a1,1,0,0,0,1,1H54.2a1,1,0,1,0,0-2H41.52A1,1,0,0,0,40.52,47.5Z"/><path class="cls-2" d="M54.2,68.39H41.52a1,1,0,1,0,0,2H54.2a1,1,0,1,0,0-2Z"/><path class="cls-2" d="M52.83,31.08a1,1,0,0,0-1-1h-8a1,1,0,0,0,0,2h8A1,1,0,0,0,52.83,31.08Z"/><path class="cls-2" d="M51.84,44a1,1,0,0,0,0-2h-8a1,1,0,0,0,0,2Z"/><path class="cls-2" d="M43.88,53.22h8a1,1,0,0,0,0-2h-8a1,1,0,0,0,0,2Z"/><path class="cls-2" d="M42.89,64.66a1,1,0,0,0,1,1h8a1,1,0,0,0,0-2h-8A1,1,0,0,0,42.89,64.66Z"/></g></svg>