<svg id="Icones" xmlns="http://www.w3.org/2000/svg" viewBox="0 0 95 95"><defs><style>.cls-1{fill:#fff;}.cls-2{fill:#003d8d;}</style></defs><g id="Sreviços_Farmacêuticos" data-name="Sreviços Farmacêuticos"><circle class="cls-1" cx="47.5" cy="47.5" r="47"/><path class="cls-2" d="M67.72,32.18H27.28a7.24,7.24,0,0,0-7.23,7.24V64.48a7.24,7.24,0,0,0,7.23,7.24H67.72A7.24,7.24,0,0,0,75,64.48V39.42A7.24,7.24,0,0,0,67.72,32.18Zm4.79,32.3a4.81,4.81,0,0,1-4.79,4.8H27.28a4.81,4.81,0,0,1-4.79-4.8V39.42a4.81,4.81,0,0,1,4.79-4.8H67.72a4.81,4.81,0,0,1,4.79,4.8Z"/><path class="cls-2" d="M36.27,25.72H58.73a1.22,1.22,0,1,0,0-2.44H36.27a1.22,1.22,0,1,0,0,2.44Z"/><path class="cls-2" d="M53.8,49.08H50.37V45.65A1.36,1.36,0,0,0,49,44.29H46a1.36,1.36,0,0,0-1.36,1.36v3.43H41.2a1.36,1.36,0,0,0-1.36,1.36v3a1.36,1.36,0,0,0,1.36,1.36h3.43v3.43A1.36,1.36,0,0,0,46,59.61h3a1.36,1.36,0,0,0,1.36-1.36V54.82H53.8a1.36,1.36,0,0,0,1.36-1.36v-3A1.36,1.36,0,0,0,53.8,49.08Z"/></g></svg>