<svg id="Icones" xmlns="http://www.w3.org/2000/svg" viewBox="0 0 95 95"><defs><style>.cls-1{fill:#fff;}.cls-2{fill:#003d8d;}</style></defs><g id="Check_uos" data-name="Check uos"><circle class="cls-1" cx="47.5" cy="47.5" r="47"/><path class="cls-2" d="M47.88,72a1.25,1.25,0,0,1-.5-.11C46.53,71.48,26.7,62.67,27,50.77c.24-11,0-20.5,0-20.6A1.23,1.23,0,0,1,27.86,29L47.4,23.1a1.21,1.21,0,0,1,.73,0l18.92,6a1.25,1.25,0,0,1,.87,1.18V50.15c.34,1.58,1.25,10.71-19.46,21.66A1.19,1.19,0,0,1,47.88,72Zm-18.4-40.9c.05,2.68.18,10.7,0,19.77-.21,9.25,15.26,17,18.38,18.49C67.46,58.78,65.5,50.74,65.48,50.66a.87.87,0,0,1,0-.36V31.17L47.74,25.59Z"/></g></svg>