<svg xmlns="http://www.w3.org/2000/svg" viewBox="0 0 100 100"><defs><style>.cls-1{fill:#00cce3;}.cls-2{fill:#073880;}</style></defs><g id="Icones"><g id="Capacidade_antioxidadante" data-name="Capacidade antioxidadante"><path class="cls-1" d="M50,2.25A47.75,47.75,0,1,1,2.25,50,47.8,47.8,0,0,1,50,2.25m0-2A49.75,49.75,0,1,0,99.75,50,49.75,49.75,0,0,0,50,.25Z"/><path class="cls-2" d="M50,80.74l-.26-.07c-.29-.09-29.37-9.11-28.76-49.45a4,4,0,0,1,2.85-3.79l24.7-7.72a4.76,4.76,0,0,1,2.94,0l23.25,7.75A3.61,3.61,0,0,1,77.21,31c-.08,9.71-2.27,42-26.95,49.7Zm0-59.49a3.13,3.13,0,0,0-.9.14L24.37,29.11a2.28,2.28,0,0,0-1.63,2.13C22.19,68.25,47.25,78,50,78.9,73.3,71.39,75.38,40.32,75.46,31a1.87,1.87,0,0,0-1.28-1.79L50.92,21.41A2.89,2.89,0,0,0,50,21.25Z"/><path class="cls-2" d="M43,64.91a6.14,6.14,0,1,1,6.14-6.14A6.15,6.15,0,0,1,43,64.91Zm0-10.52a4.39,4.39,0,1,0,4.39,4.38A4.38,4.38,0,0,0,43,54.39Z"/><path class="cls-2" d="M41.23,50.88a2.64,2.64,0,1,1,2.63-2.63A2.63,2.63,0,0,1,41.23,50.88Zm0-3.51a.88.88,0,1,0,.88.88A.87.87,0,0,0,41.23,47.37Z"/><path class="cls-2" d="M56.14,61.4a3.51,3.51,0,1,1,3.51-3.51A3.51,3.51,0,0,1,56.14,61.4Zm0-5.26a1.76,1.76,0,1,0,1.75,1.75A1.75,1.75,0,0,0,56.14,56.14Z"/><path class="cls-2" d="M52.63,50.88a7,7,0,1,1,7-7A7,7,0,0,1,52.63,50.88Zm0-12.28a5.26,5.26,0,1,0,5.26,5.26A5.27,5.27,0,0,0,52.63,38.6Z"/><rect class="cls-2" x="43.86" y="42.11" width="3.51" height="1.75"/><rect class="cls-2" x="57.89" y="42.11" width="3.51" height="1.75"/><rect class="cls-2" x="48.18" y="35.54" width="1.75" height="3.44" transform="translate(-11.78 27.62) rotate(-28.21)"/><rect class="cls-2" x="55.16" y="48.35" width="1.75" height="3.43" transform="translate(-17 32.41) rotate(-28.19)"/><rect class="cls-2" x="55.32" y="36.33" width="3.44" height="1.75" transform="translate(-6.54 61.63) rotate(-54.14)"/></g></g></svg>