<svg width="1330" height="318" xmlns="http://www.w3.org/2000/svg">
 <g>
  <title>Layer 1</title>
  <rect class="cls-1" x="215.33" y="60.98" width="1021" height="197" rx="91.04" fill="#ff5c00" id="svg_1"/>
  <path class="cls-2" d="m1143.29,69a83,83 0 0 1 83,83l0,14.92a83,83 0 0 1 -83,83l-838.93,0a83,83 0 0 1 -83,-83l0,-14.92a83,83 0 0 1 83,-83l838.93,0m0,-16l-838.93,0a99.15,99.15 0 0 0 -99,99l0,14.92a99.15,99.15 0 0 0 99,99l838.93,0a99.15,99.15 0 0 0 99,-99l0,-14.92a99.15,99.15 0 0 0 -99,-99z" fill="#f1f1f1" id="svg_2"/>
  <text class="cls-3" fill="#f1f1f1" font-size="60px" font-family="'Arial'" font-weight="700" y="248.71432" x="427.42323" id="svg_3" stroke="null" transform="matrix(0.895915 0 0 0.99109 37.479 -109.472)">Venha compra diretamente</text>
  <text class="cls-5" fill="#f1f1f1" font-size="48px" font-family="'Arial'" y="192.03" x="473.89999" id="svg_6">em uma de nossas lojas.</text>
  <path class="cls-8" d="m412.22,206.16l-93.31,-168.16a16.73,16.73 0 0 0 -21.05,-7.35l-20.42,8.46l-3.44,-8.33a50.46,50.46 0 1 0 -93.23,38.62l3.45,8.33l-18.22,7.54a16.74,16.74 0 0 0 -9.69,20.07l52.93,184.9a16.74,16.74 0 0 0 22.5,10.86l172.26,-71.35a16.74,16.74 0 0 0 8.23,-23.59l-0.01,0zm-189.7,-154.06a5.25,5.25 0 1 1 9.7,-4l3.45,8.33l-9.7,4l-3.45,-8.33z" fill="#fff" id="svg_9"/>
  <polygon class="cls-9" points="179.49000549316406,104.14999389648438 301.67999267578125,53.540008544921875 389.2699890136719,211.3800048828125 229.1699981689453,277.70001220703125 179.49000549316406,104.14999389648438 " fill="#003d8d" id="svg_10"/>
  <path class="cls-10" d="m397.58,214.28l-172.23,71.35l-52.93,-184.89l131.85,-54.62l93.31,168.16zm-164.58,55.49l148,-61.29l-81.9,-147.48l-112.54,46.56l46.44,162.21z" fill="#00214d" id="svg_11"/>
  <path class="cls-1" d="m272.34,87.28a5.86,5.86 0 0 1 -7.66,-3.17l-18,-43.44a22,22 0 0 0 -40.64,16.83l18,43.44a5.86,5.86 0 1 1 -10.83,4.49l-18,-43.44a33.71,33.71 0 0 1 62.29,-25.81l18,43.44a5.87,5.87 0 0 1 -3.16,7.66z" fill="#ff5c00" id="svg_12"/>
  <path class="cls-10" d="m372.65,182.8l-151.94,62.93a5.86,5.86 0 0 1 -4.48,-10.83l151.93,-62.9a5.86,5.86 0 1 1 4.49,10.83l0,-0.03z" fill="#00214d" id="svg_13"/>
  <path class="cls-2" d="m259.75,148l-2.23,-14.25s-0.72,-7 4.14,-9.34s12.34,-5.64 12.34,-5.64l3.52,18.3s10.82,-6.57 16.47,-7.3s5.87,2.49 6.09,5.71s0.7,8.33 1.49,9.95s0.75,4.31 -3,4.8s-18.87,6.46 -21.66,14.48c0,0 2.72,-2.65 4.6,-2.9l2.22,10.19s3.9,9.45 -4.2,13.37s-12.71,6.81 -13.46,2.51s-1.2,-10.75 -2,-12.37s0.57,-2.95 -4.83,-0.33s-16.2,7.84 -17.2,1.65s0.35,-6.17 -1.44,-12.63s4.63,-5.58 6.79,-6.62s15.89,-4.36 16.26,-11.87a9.45,9.45 0 0 1 -3.54,3.71l-0.36,-1.42z" fill="#f1f1f1" id="svg_14"/>
 </g>

</svg>