<svg id="Icones" xmlns="http://www.w3.org/2000/svg" viewBox="0 0 400 400"><defs><style>.cls-1{fill:#003d8d;}</style></defs><g id="Check_uos" data-name="Check uos"><path class="cls-1" d="M201.52,298.25a5,5,0,0,1-2-.42c-3.39-1.48-83-36.89-82-84.69,1-44.37,0-82.38,0-82.76a5,5,0,0,1,3.56-4.92l78.5-23.5a5,5,0,0,1,2.94,0l76,24a5,5,0,0,1,3.5,4.77v79.9c1.37,6.35,5.05,43-78.17,87A4.91,4.91,0,0,1,201.52,298.25ZM127.6,134c.22,10.78.73,43-.08,79.41-.83,37.18,61.33,68.41,73.84,74.31,78.83-42.34,71-74.67,70.87-75a3.48,3.48,0,0,1-.21-1.43V134.41L201,112Z"/></g></svg>