<svg id="Icones" xmlns="http://www.w3.org/2000/svg" viewBox="0 0 400 400"><defs><style>.cls-1{fill:#003d8d;}</style></defs><g id="Exames"><path class="cls-1" d="M193.5,247.36a5,5,0,0,1-1.74-.32,159.86,159.86,0,0,1-38.69-21.91c-24.77-19.51-33.52-42.14-25.28-65.44,6-17.09,15.31-27.51,27.58-31,16.18-4.56,32.35,4.69,38.84,9.11,15.44-9.29,29.32-11.71,41.3-7.19,19.13,7.22,25.54,29.43,25.8,30.37a5,5,0,0,1-9.62,2.71h0c-.05-.19-5.38-18.35-19.77-23.74-9.58-3.59-21.42-.88-35.2,8.07a5,5,0,0,1-5.87-.31c-.16-.13-17.35-13.77-32.8-9.38-8.94,2.53-16,10.83-20.84,24.66-15.05,42.62,46,69.76,56.53,74a86.67,86.67,0,0,0,42.67-31.59,5,5,0,0,1,8.18,5.75c-19.84,28.2-48.66,35.67-49.88,36A5,5,0,0,1,193.5,247.36Z"/><path class="cls-1" d="M235,199.86a5.05,5.05,0,0,1-1-.11,5,5,0,0,1-3.56-2.89l-9.84-22.48-6.3,12a5,5,0,0,1-4.42,2.67H169a5,5,0,0,1,0-10h37.84l9.74-18.47a5,5,0,0,1,9,.32l11.19,25.57,7.84-7.24a5,5,0,0,1,3.56-1.32l30,1a5,5,0,1,1-.34,10l-27.95-.93-11.49,10.61A5,5,0,0,1,235,199.86Z"/></g></svg>