<svg width="60" height="60" viewBox="0 0 60 60" fill="none" xmlns="http://www.w3.org/2000/svg">
<path d="M48.1111 13.9912C45.8817 11.754 42.8556 10.4931 39.6973 10.4854H39.6434C36.0679 10.5517 32.6378 11.9123 29.9891 14.3148C26.9148 11.4562 24.0023 10 21.3056 10C19.5467 10.0092 17.8071 10.3667 16.1872 11.0517C14.5672 11.7367 13.0989 12.7358 11.867 13.9912C9.37607 16.5912 7.99 20.0557 8.00005 23.6564C8.01011 27.2571 9.41552 30.7137 11.9209 33.2998L29.234 50.0196C29.33 50.1242 29.4467 50.2077 29.5766 50.2649C29.7066 50.322 29.8471 50.3515 29.9891 50.3515C30.1311 50.3515 30.2715 50.322 30.4015 50.2649C30.5315 50.2077 30.6482 50.1242 30.7441 50.0196L48.1111 33.2459C50.6058 30.6618 52 27.2103 52 23.6185C52 20.0268 50.6058 16.5752 48.1111 13.9912ZM46.547 31.7357L29.9891 47.7543L13.4311 31.7357C13.1701 31.5108 12.9349 31.2576 12.73 30.9806H18.7167C18.8963 30.9744 19.0722 30.9275 19.231 30.8434C19.3898 30.7593 19.5275 30.6403 19.6336 30.4952L22.3303 26.3422L27.4002 36.0505C27.4976 36.2128 27.6309 36.3506 27.7898 36.4534C27.9488 36.5563 28.1291 36.6214 28.3171 36.6437H28.371C28.5563 36.6358 28.7368 36.5825 28.8967 36.4884C29.0566 36.3944 29.1909 36.2625 29.2879 36.1044L35.005 26.7198L38.5107 30.1176C38.6067 30.2223 38.7234 30.3058 38.8534 30.3629C38.9834 30.4201 39.1238 30.4496 39.2658 30.4496C39.4078 30.4496 39.5483 30.4201 39.6782 30.3629C39.8082 30.3058 39.9249 30.2223 40.0209 30.1176C40.222 29.907 40.3343 29.6269 40.3343 29.3356C40.3343 29.0443 40.222 28.7642 40.0209 28.5535L35.5443 24.2388C35.4186 24.1327 35.2721 24.054 35.1142 24.0075C34.9564 23.9611 34.7906 23.948 34.6274 23.9691C34.473 23.9874 34.3247 24.0406 34.1939 24.1247C34.0631 24.2088 33.9531 24.3216 33.8724 24.4545L28.425 33.3537L23.409 23.6994C23.3102 23.5406 23.1737 23.4087 23.0115 23.3156C22.8493 23.2224 22.6666 23.1709 22.4797 23.1655C22.2927 23.1602 22.1073 23.2012 21.9401 23.285C21.7729 23.3687 21.629 23.4926 21.5213 23.6455L18.1234 28.8232H11.3816C10.3084 26.6622 9.92923 24.2224 10.2961 21.8376C10.663 19.4529 11.758 17.2398 13.4311 15.5013C14.452 14.4439 15.6753 13.6029 17.0282 13.0284C18.3811 12.4539 19.8358 12.1577 21.3056 12.1574C23.5708 12.1574 26.3215 13.6676 29.234 16.5261C29.33 16.6307 29.4467 16.7143 29.5766 16.7714C29.7066 16.8285 29.8471 16.8581 29.9891 16.8581C30.1311 16.8581 30.2715 16.8285 30.4015 16.7714C30.5315 16.7143 30.6482 16.6307 30.7441 16.5261C33.0843 14.1116 36.2817 12.7164 39.6434 12.6428H39.6973C42.2678 12.6567 44.7292 13.6838 46.547 15.5013C48.6643 17.6828 49.845 20.6055 49.837 23.6455C49.8482 26.6702 48.666 29.5772 46.547 31.7357V31.7357Z" fill="#143C8D"/>
</svg>
