<svg width="60" height="60" viewBox="0 0 60 60" fill="none" xmlns="http://www.w3.org/2000/svg">
<path d="M53.6 18.7C53.2 18.3 52.6 18.3 52.2 18.7C49.4 21.5 44.7 22.2 39.1 20.8C37.6 15.2 38.4 10.6 41.2 7.7C41.6 7.3 41.6 6.7 41.2 6.3C40.8 5.9 40.2 5.9 39.8 6.3C36.7 9.5 35.7 14.4 37 20.2C35.3 19.8 33.8 19.7 32.3 19.7C27.9 19.7 24.4 21.3 22.1 24.2C19.7 27.3 19.1 31.9 20.2 37.1C14.3 35.8 9.4 36.8 6.3 39.9C5.9 40.3 5.9 40.9 6.3 41.3C6.7 41.7 7.3 41.7 7.7 41.3C10.5 38.5 15.2 37.8 20.8 39.2C22.3 44.8 21.5 49.4 18.7 52.3C18.3 52.7 18.3 53.3 18.7 53.7C18.9 53.9 19.1 54 19.4 54C19.7 54 19.9 53.9 20.1 53.7C23.2 50.5 24.2 45.6 22.9 39.8C24.6 40.2 26.1 40.3 27.6 40.3C32 40.3 35.5 38.7 37.8 35.8C40.2 32.7 40.8 28.1 39.7 22.9C41.4 23.3 43 23.5 44.5 23.5C48.3 23.5 51.4 22.4 53.7 20.1C54 19.8 54 19.1 53.6 18.7ZM36.2 34.6C34.4 37 31.4 38.3 27.6 38.3C26 38.3 24.2 38.1 22.3 37.6C21 32.6 21.5 28.2 23.6 25.4C25.4 23 28.4 21.7 32.2 21.7C33.8 21.7 35.6 21.9 37.5 22.4C38.8 27.4 38.3 31.8 36.2 34.6Z" fill="#143C8D"/>
<path d="M41.1 11.2L48.7 18.8C48.9 19 49.2 19.1 49.4 19.1C49.7 19.1 49.9 19 50.1 18.8C50.5 18.4 50.5 17.8 50.1 17.4L42.5 9.8C42.1 9.4 41.5 9.4 41.1 9.8C40.8 10.2 40.8 10.8 41.1 11.2Z" fill="#143C8D"/>
<path d="M39.6 13.7C39.2 14.1 39.2 14.7 39.6 15.1L44.8 20.3C45 20.5 45.3 20.6 45.5 20.6C45.8 20.6 46 20.5 46.2 20.3C46.6 19.9 46.6 19.3 46.2 18.9L41 13.7C40.6 13.3 40 13.3 39.6 13.7Z" fill="#143C8D"/>
<path d="M18.7 48.7L11.1 41.1C10.7 40.7 10.1 40.7 9.69999 41.1C9.29999 41.5 9.29999 42.1 9.69999 42.5L17.3 50.1C17.5 50.3 17.8 50.4 18 50.4C18.2 50.4 18.5 50.3 18.7 50.1C19.1 49.8 19.1 49.1 18.7 48.7Z" fill="#143C8D"/>
<path d="M19.5 46.5C19.8 46.5 20 46.4 20.2 46.2C20.6 45.8 20.6 45.2 20.2 44.8L15 39.6C14.6 39.2 14 39.2 13.6 39.6C13.2 40 13.2 40.6 13.6 41L18.8 46.2C19 46.4 19.3 46.5 19.5 46.5Z" fill="#143C8D"/>
<path d="M26.8 25.5C26.4 25.1 25.8 25.1 25.4 25.5C25 25.9 25 26.5 25.4 26.9L33 34.5C33.2 34.7 33.5 34.8 33.7 34.8C34 34.8 34.2 34.7 34.4 34.5C34.8 34.1 34.8 33.5 34.4 33.1L26.8 25.5Z" fill="#143C8D"/>
<path d="M24.8 29.9C24.4 29.5 23.8 29.5 23.4 29.9C23 30.3 23 30.9 23.4 31.3L28.6 36.5C28.8 36.7 29.1 36.8 29.3 36.8C29.6 36.8 29.8 36.7 30 36.5C30.4 36.1 30.4 35.5 30 35.1L24.8 29.9Z" fill="#143C8D"/>
<path d="M31.2 23.5C30.8 23.1 30.2 23.1 29.8 23.5C29.4 23.9 29.4 24.5 29.8 24.9L35 30.1C35.2 30.3 35.5 30.4 35.7 30.4C35.9 30.4 36.2 30.3 36.4 30.1C36.8 29.7 36.8 29.1 36.4 28.7L31.2 23.5Z" fill="#143C8D"/>
</svg>
