<svg width="60" height="60" viewBox="0 0 60 60" fill="none" xmlns="http://www.w3.org/2000/svg">
<path d="M49.6937 18.3854L47.8705 16.5625L43.4427 12.1354L41.6195 10.3125C41.2028 9.89583 40.5777 9.89583 40.1609 10.3125C39.7442 10.7292 39.7442 11.3542 40.1609 11.7708L41.2549 12.8646L35.3685 18.75L33.91 17.2917L32.4514 15.8333C32.0347 15.4167 31.4096 15.4167 30.9929 15.8333C30.5761 16.25 30.5761 16.875 30.9929 17.2917L31.7221 18.0208L27.2944 22.4479L14.7924 34.9479C14.3757 35.3646 14.3757 35.9896 14.7924 36.4062L16.9803 38.5937L14.7924 40.7812C14.584 40.9896 14.4799 41.25 14.4799 41.5104C14.4799 41.7708 14.584 42.0312 14.7924 42.2396L15.5217 42.9688L10.3125 48.2292C9.89582 48.6458 9.89582 49.2708 10.3125 49.6875C10.5209 49.8958 10.7814 50 11.0418 50C11.3023 50 11.5627 49.8958 11.7711 49.6875L16.9282 44.5313L17.6574 45.2604C17.8658 45.4688 18.1263 45.5729 18.3867 45.5729C18.6472 45.5729 18.9076 45.4688 19.116 45.2604L21.3038 43.0729L23.4917 45.2604C23.7 45.4688 23.9605 45.5729 24.221 45.5729C24.4814 45.5729 24.7419 45.4688 24.9502 45.2604L41.2549 28.9583L41.9321 28.2813L42.6613 29.0104C42.8697 29.2187 43.1302 29.3229 43.3906 29.3229C43.6511 29.3229 43.9115 29.2187 44.1199 29.0104C44.5366 28.5937 44.5366 27.9687 44.1199 27.5521L42.6613 26.0937L41.2028 24.6354L47.0891 18.75L48.183 19.8437C48.3914 20.0521 48.6518 20.1562 48.9123 20.1562C49.1728 20.1562 49.4332 20.0521 49.6416 19.8437C50.1104 19.4792 50.1104 18.8021 49.6937 18.3854ZM24.2731 43.0729L22.3457 41.1458C22.2936 41.0938 22.2415 41.0417 22.1894 40.9896C22.1373 40.9375 22.0852 40.8854 22.0331 40.8333C21.6164 40.4167 20.9913 40.4167 20.5746 40.8333L18.3867 43.0208L16.9282 41.5625L19.116 39.375C19.5327 38.9583 19.5327 38.3333 19.116 37.9167C19.0639 37.8646 19.0118 37.8125 18.9597 37.7604C18.9076 37.7083 18.8555 37.6562 18.8035 37.6042L16.9282 35.7292L21.3559 31.3021L24.3251 34.2708C24.5335 34.4792 24.794 34.5833 25.0544 34.5833C25.3149 34.5833 25.5753 34.4792 25.7837 34.2708C26.2004 33.8542 26.2004 33.2292 25.7837 32.8125L22.8145 29.8438L25.0023 27.6563L27.9715 30.625C28.1799 30.8333 28.4404 30.9375 28.7008 30.9375C28.9613 30.9375 29.2217 30.8333 29.4301 30.625C29.8468 30.2083 29.8468 29.5833 29.4301 29.1667L26.4609 26.1979L27.9195 24.7396L35.2643 32.0833L24.2731 43.0729ZM36.8271 30.5729L29.4301 23.1771L33.1286 19.4792L34.5872 20.9375L39.0149 25.3646L40.4735 26.8229L36.8271 30.5729ZM39.7442 23.1771L36.775 20.2083L42.6613 14.3229L44.1199 15.7813L45.5785 17.2396L39.7442 23.1771Z" fill="#143C8D"/>
</svg>
