<svg width="60" height="60" viewBox="0 0 60 60" fill="none" xmlns="http://www.w3.org/2000/svg">
<path d="M43.0381 20.3385V18.3689C43.0365 16.8792 42.4393 15.4509 41.3775 14.3975C40.3158 13.3441 38.8761 12.7516 37.3745 12.75H22.6255C21.1239 12.7516 19.6842 13.3441 18.6225 14.3975C17.5607 15.4509 16.9635 16.8792 16.9619 18.3689V20.3385H13.8559C12.0381 20.34 10.2952 21.0571 9.00979 22.3324C7.7244 23.6076 7.00158 25.3368 7 27.1403V40.4482C7.00158 42.2517 7.7244 43.9808 9.00979 45.2561C10.2952 46.5313 12.0381 47.2484 13.8559 47.25H46.1441C47.9619 47.2484 49.7048 46.5313 50.9902 45.2561C52.2756 43.9808 52.9984 42.2517 53 40.4482V27.1403C52.9984 25.3368 52.2756 23.6076 50.9902 22.3324C49.7048 21.0571 47.9619 20.34 46.1441 20.3385H43.0381ZM18.7504 18.3689C18.752 17.3497 19.1607 16.3728 19.8871 15.6521C20.6135 14.9315 21.5982 14.526 22.6255 14.5244H37.3745C38.4018 14.526 39.3865 14.9315 40.1129 15.6521C40.8393 16.3728 41.248 17.3497 41.2496 18.3689V20.3385H18.7504V18.3689ZM51.2115 27.1403V40.4482C51.2099 41.7811 50.6755 43.0589 49.7256 44.0014C48.7756 44.9439 47.4876 45.474 46.1441 45.4756H13.8559C12.5124 45.474 11.2244 44.9439 10.2744 44.0014C9.32446 43.0589 8.79007 41.7811 8.78849 40.4482V27.1403C8.79007 25.8074 9.32446 24.5296 10.2744 23.5871C11.2244 22.6446 12.5124 22.1144 13.8559 22.1129H46.1441C47.4876 22.1144 48.7756 22.6446 49.7256 23.5871C50.6755 24.5296 51.2099 25.8074 51.2115 27.1403V27.1403Z" fill="#143C8D" stroke="#143C8D" stroke-width="0.25"/>
<path d="M37.5415 30.4229H33.4577V26.3773C33.4577 26.142 33.3635 25.9163 33.1958 25.75C33.0281 25.5836 32.8007 25.4901 32.5635 25.4901H27.4365C27.1993 25.4901 26.9719 25.5836 26.8042 25.75C26.6365 25.9163 26.5422 26.142 26.5422 26.3773V30.4288H22.4585C22.2213 30.4288 21.9939 30.5223 21.8262 30.6887C21.6585 30.8551 21.5643 31.0807 21.5643 31.316V36.4026C21.5643 36.6379 21.6585 36.8635 21.8262 37.0299C21.9939 37.1963 22.2213 37.2898 22.4585 37.2898H26.5422V41.3413C26.5422 41.5766 26.6365 41.8023 26.8042 41.9686C26.9719 42.135 27.1993 42.2285 27.4365 42.2285H32.5635C32.8007 42.2285 33.0281 42.135 33.1958 41.9686C33.3635 41.8023 33.4577 41.5766 33.4577 41.3413V37.2957H37.5415C37.7786 37.2957 38.0061 37.2022 38.1738 37.0358C38.3415 36.8695 38.4357 36.6438 38.4357 36.4085V31.3219C38.4373 31.2044 38.4153 31.0878 38.3711 30.9788C38.3269 30.8698 38.2612 30.7706 38.178 30.6869C38.0948 30.6033 37.9957 30.5369 37.8865 30.4916C37.7772 30.4462 37.6599 30.4229 37.5415 30.4229V30.4229ZM36.6472 35.5213H32.5635C32.3263 35.5213 32.0989 35.6148 31.9312 35.7812C31.7635 35.9475 31.6692 36.1732 31.6692 36.4085V40.46H28.3307V36.3967C28.3307 36.1614 28.2365 35.9357 28.0688 35.7693C27.9011 35.603 27.6737 35.5095 27.4365 35.5095H23.3528V32.1973H27.4365C27.6737 32.1973 27.9011 32.1038 28.0688 31.9374C28.2365 31.7711 28.3307 31.5454 28.3307 31.3101V27.2408H31.6692V31.2924C31.6692 31.5277 31.7635 31.7533 31.9312 31.9197C32.0989 32.0861 32.3263 32.1795 32.5635 32.1795H36.6472V35.5213Z" fill="#143C8D" stroke="#143C8D" stroke-width="0.25"/>
</svg>
