<svg width="60" height="60" viewBox="0 0 60 60" fill="none" xmlns="http://www.w3.org/2000/svg">
<path d="M49.1216 40.532H47.2246V38.6466C47.2246 38.4151 47.1321 38.1931 46.9673 38.0294C46.8026 37.8656 46.5792 37.7737 46.3462 37.7737H45.4427V27.662H47.1689C47.3472 27.662 47.5214 27.608 47.6681 27.5072C47.8149 27.4065 47.9273 27.2637 47.9904 27.0979C48.0535 26.9321 48.0643 26.7511 48.0213 26.5791C47.9784 26.407 47.8838 26.252 47.7501 26.1347L44.7124 23.4702V10.873C44.7124 10.6415 44.6198 10.4194 44.4551 10.2557C44.2904 10.092 44.0669 10 43.834 10H36.4935C36.2606 10 36.0371 10.092 35.8724 10.2557C35.7076 10.4194 35.6151 10.6415 35.6151 10.873V15.4905L29.605 10.2187C29.4445 10.0778 29.2377 10 29.0236 10C28.8094 10 28.6026 10.0778 28.4421 10.2187L10.2972 26.1347C10.1635 26.252 10.0689 26.407 10.026 26.579C9.98304 26.7511 9.99385 26.9321 10.0569 27.0979C10.12 27.2637 10.2324 27.4064 10.3792 27.5072C10.5259 27.608 10.7001 27.662 10.8784 27.662H12.6029V44.9604H10.8784C10.6455 44.9604 10.422 45.0523 10.2573 45.216C10.0925 45.3798 10 45.6018 10 45.8333C10 46.0649 10.0925 46.2869 10.2573 46.4506C10.422 46.6143 10.6455 46.7063 10.8784 46.7063H13.3495C13.3931 46.714 13.4372 46.7184 13.4814 46.7195H37.7427C37.8111 46.8748 37.9236 47.0069 38.0663 47.0997C38.209 47.1925 38.3758 47.242 38.5464 47.2421H40.4722V49.127C40.4723 49.3585 40.5648 49.5806 40.7295 49.7443C40.8943 49.908 41.1177 50 41.3507 50H46.3462C46.5792 50 46.8026 49.908 46.9673 49.7443C47.1321 49.5806 47.2246 49.3585 47.2246 49.127V47.2421H49.1216C49.3545 47.2421 49.578 47.1501 49.7427 46.9864C49.9074 46.8227 50 46.6007 50 46.3691V41.405C50 41.1734 49.9074 40.9514 49.7427 40.7877C49.578 40.624 49.3545 40.532 49.1216 40.532ZM37.372 11.746H42.9555V21.9292L37.372 17.0315V11.746ZM29.0236 12.0375L44.8462 25.916H13.2011L29.0236 12.0375ZM14.3598 27.6748H43.6858V37.7737H41.3507C41.1177 37.7737 40.8943 37.8656 40.7295 38.0294C40.5648 38.1931 40.4723 38.4151 40.4722 38.6466V40.532H38.5464C38.3134 40.532 38.09 40.624 37.9252 40.7877C37.7605 40.9514 37.6679 41.1734 37.6679 41.4049V44.9736H34.9938V32.4932C34.9938 32.2617 34.9012 32.0396 34.7365 31.8759C34.5717 31.7122 34.3483 31.6202 34.1153 31.6202H23.9318C23.6988 31.6202 23.4754 31.7122 23.3106 31.8759C23.1459 32.0396 23.0533 32.2617 23.0533 32.4932V44.9604H14.3598L14.3598 27.6748ZM25.6375 44.9736C25.594 44.9658 25.5499 44.9614 25.5057 44.9604H24.8102V33.3662H33.2369V44.9736H25.6375ZM48.2431 45.4962H46.3462C46.1132 45.4962 45.8898 45.5882 45.725 45.7519C45.5603 45.9156 45.4678 46.1376 45.4677 46.3691V48.2541H42.2291V46.3691C42.2291 46.1376 42.1366 45.9156 41.9718 45.7519C41.8071 45.5882 41.5837 45.4962 41.3507 45.4962H39.4248V42.2779H41.3507C41.5837 42.2779 41.8071 42.186 41.9718 42.0222C42.1366 41.8585 42.2291 41.6365 42.2291 41.405V39.5196H45.4677V41.4049C45.4678 41.6365 45.5603 41.8585 45.725 42.0222C45.8898 42.1859 46.1132 42.2779 46.3462 42.2779H48.2431V45.4962Z" fill="#143C8D"/>
</svg>
