<svg width="50" height="50" viewBox="0 0 50 50" fill="none" xmlns="http://www.w3.org/2000/svg">
<path d="M17.3327 15.2644L16.9647 12.6644C16.7096 10.8624 15.8438 9.17844 14.5267 7.92281L14.4224 7.82331C13.2786 6.73275 12.789 5.15819 13.1127 3.61112C13.4364 2.06422 14.5162 0.817867 16.0013 0.27733C17.4937 -0.266195 19.1277 -0.000920072 20.3723 0.986299C21.6166 1.97352 22.2464 3.50444 22.0569 5.08131C21.8324 6.95 22.2682 8.85181 23.2842 10.4362L24.6621 12.5852L23.1852 13.5322L21.8073 11.3831C20.572 9.45656 20.0422 7.144 20.3151 4.87187C20.4315 3.90481 20.0451 2.966 19.2819 2.36072C18.5189 1.75527 17.5168 1.59298 16.6016 1.9258C15.6908 2.25739 15.0285 3.02161 14.8301 3.97025C14.6316 4.91887 14.932 5.88469 15.6334 6.55344L15.7378 6.65294C17.3392 8.17981 18.3919 10.2272 18.7021 12.4184L19.0702 15.0183L17.3327 15.2644Z" fill="#143C8D"/>
<path d="M32.4371 50C31.4328 50 30.4459 49.6632 29.6274 49.0141C28.383 48.0268 27.7531 46.4959 27.9426 44.9188C28.167 43.0504 27.7314 41.1486 26.7154 39.5642L25.3374 37.4148L26.8143 36.4681L28.1923 38.6173C29.4276 40.5437 29.9576 42.856 29.6844 45.1282C29.5683 46.0952 29.9546 47.034 30.7178 47.6393C31.4809 48.2447 32.4829 48.407 33.3982 48.0742C34.3088 47.7426 34.9713 46.9784 35.1697 46.0298C35.3683 45.0812 35.0679 44.1153 34.3665 43.4463L34.2626 43.3478C32.6608 41.8203 31.608 39.7727 31.298 37.5818L30.9299 34.9817L32.6668 34.7357L33.0349 37.3358C33.2899 39.1378 34.1559 40.8219 35.4728 42.0775L35.5767 42.1763C36.7208 43.2674 37.2104 44.842 36.8869 46.3892C36.5632 47.936 35.4834 49.1823 33.9983 49.7228C33.4875 49.9088 32.9599 50 32.4371 50Z" fill="#143C8D"/>
<path d="M4.55225 36.9853C4.24019 36.9855 3.92506 36.9532 3.611 36.8874C2.06414 36.5638 0.817796 35.4839 0.277252 33.9988C-0.266098 32.5061 -0.000998303 30.8722 0.986227 29.6279C1.97327 28.3833 3.50469 27.7538 5.08125 27.9433C6.94988 28.167 8.8515 27.7319 10.4359 26.7161L12.5851 25.3381L13.532 26.8151L11.3828 28.1929C9.45625 29.4283 7.14431 29.9583 4.87194 29.6851C3.90456 29.5693 2.96593 29.9551 2.36065 30.7183C1.75536 31.4815 1.59273 32.4834 1.92572 33.3988C2.25731 34.3093 3.02153 34.9718 3.97019 35.1702C4.91931 35.3688 5.88463 35.0684 6.55338 34.367L6.6525 34.2629C8.17956 32.6613 10.2272 31.6085 12.4181 31.2985L15.0184 30.9304L15.2642 32.6673L12.6639 33.0354C10.8619 33.2906 9.178 34.1565 7.92219 35.4734L7.82306 35.5774C6.95394 36.4894 5.77725 36.9853 4.55225 36.9853Z" fill="#143C8D"/>
<path d="M37.4145 24.6619L36.4678 23.185L38.617 21.8071C40.5434 20.5718 42.8561 20.0418 45.1281 20.3149C46.0946 20.4309 47.0339 20.0449 47.6392 19.2815C48.2446 18.5183 48.4071 17.5164 48.0741 16.6011C47.7425 15.6906 46.9783 15.0281 46.0297 14.8296C45.0816 14.6314 44.1152 14.9314 43.4464 15.6328L43.3469 15.7372C41.8204 17.3385 39.7728 18.3913 37.5817 18.7015L34.9816 19.0696L34.7356 17.3327L37.3357 16.9646C39.1377 16.7093 40.8218 15.8435 42.0773 14.5266L42.1768 14.4223C43.2671 13.2786 44.8409 12.7885 46.3889 13.1126C47.9359 13.4363 49.1822 14.5161 49.7228 16.0013C50.2661 17.4939 50.001 19.1278 49.0138 20.3723C48.0268 21.6169 46.4958 22.2465 44.9188 22.0569C43.0503 21.8325 41.1484 22.2681 39.564 23.2841L37.4145 24.6619Z" fill="#143C8D"/>
<path d="M16.2311 47.5828C15.6756 47.5828 15.1212 47.4609 14.6008 47.2181C13.6668 46.7828 12.9596 46.013 12.6092 45.0507C12.0361 43.4762 12.5346 41.7227 13.8494 40.687C14.3964 40.2584 14.8728 39.7395 15.2533 39.161C13.7441 38.1571 12.4116 36.9297 11.2838 35.5035L12.6599 34.4153C13.8331 35.8987 15.2529 37.1427 16.88 38.1127L17.5751 38.5272L17.2179 39.2535C16.6823 40.3425 15.8923 41.3151 14.9335 42.0665C14.1054 42.7188 13.9971 43.7342 14.2579 44.4507C14.4479 44.9726 14.8329 45.3907 15.3423 45.6282C15.8518 45.8658 16.4198 45.8919 16.9413 45.7019C17.8123 45.3849 18.3603 44.5878 18.3374 43.6713L18.3343 43.5559C18.3087 42.3358 18.5413 41.1627 19.0257 40.0637L19.3459 39.3372L20.1006 39.5835C21.9049 40.1723 23.7738 40.4245 25.6557 40.3342L25.7401 42.0865C23.9238 42.1745 22.1189 41.9748 20.3629 41.4933C20.1658 42.1422 20.0734 42.8187 20.0882 43.5131L20.0914 43.6253C20.1326 45.2843 19.1078 46.7803 17.5416 47.3503C17.1153 47.5057 16.6728 47.5828 16.2311 47.5828Z" fill="#143C8D"/>
<path d="M7.6035 26.2301C7.4205 24.2065 7.59331 22.1975 8.11719 20.2453C7.5705 20.1094 7.00431 20.0457 6.42469 20.0595L6.31188 20.0627C4.64725 20.1014 3.15581 19.0771 2.58649 17.5129C2.23631 16.5508 2.28333 15.5064 2.71896 14.5724C3.15438 13.6383 3.92425 12.9311 4.88638 12.5807C6.46031 12.0074 8.21419 12.5058 9.25019 13.8209C9.60913 14.2781 10.022 14.6794 10.4832 15.0196C11.5438 13.4297 12.8521 12.0391 14.3818 10.8777L15.4426 12.2751C13.8528 13.4821 12.5293 14.965 11.5087 16.6822L11.0738 17.4142L10.3292 17.0012C9.37388 16.4714 8.54681 15.7662 7.87119 14.9055C7.21856 14.0769 6.20313 13.9686 5.48656 14.2294C4.96481 14.4194 4.54656 14.8045 4.30919 15.3139C4.07163 15.8231 4.0455 16.3912 4.23531 16.9129C4.55181 17.7826 5.35481 18.3323 6.26713 18.3087L6.3815 18.3056C7.47419 18.2824 8.52788 18.4665 9.52106 18.8551L10.2903 19.156L10.0362 19.9418C9.39356 21.9299 9.163 23.9926 9.35106 26.072L7.6035 26.2301Z" fill="#143C8D"/>
<path d="M35.1484 38.7819L34.1209 37.3599C35.7286 36.1983 37.0861 34.7477 38.1556 33.0489L38.5762 32.3803L39.2851 32.7291C40.367 33.2614 41.3376 34.0468 42.092 35.0005C42.7464 35.8313 43.7622 35.9397 44.4786 35.6791C45.0005 35.4891 45.4184 35.1041 45.6561 34.5946C45.8937 34.0853 45.9198 33.5173 45.73 32.9956C45.4138 32.1276 44.6117 31.5846 43.7012 31.6045L43.6832 31.605L43.5627 31.6031C42.3876 31.6299 41.2502 31.4094 40.1758 30.9501L39.4205 30.6276L39.6926 29.8526C40.3256 28.0505 40.6186 26.1683 40.5631 24.2588L42.3169 24.2078C42.3702 26.0419 42.1348 27.853 41.6165 29.6043C42.2376 29.7825 42.8806 29.8658 43.5383 29.8486L43.5561 29.8483L43.6766 29.8502C45.3181 29.8181 46.8116 30.8381 47.3786 32.3954C47.729 33.3577 47.6819 34.4021 47.2462 35.3361C46.8107 36.2702 46.0409 36.9775 45.0787 37.3278C43.5046 37.9005 41.7507 37.4023 40.7151 36.0876C40.2823 35.5404 39.7586 35.0634 39.1766 34.6832C38.0662 36.2743 36.7141 37.6506 35.1484 38.7819Z" fill="#143C8D"/>
<path d="M37.7412 15.7396C36.5452 14.0225 35.0307 12.5837 33.2404 11.4631L32.5345 11.0214L32.9391 10.2934C33.4677 9.34238 34.1714 8.51794 35.0312 7.84288C35.8601 7.19006 35.9683 6.17456 35.7074 5.45825C35.5174 4.93631 35.1323 4.51838 34.6228 4.28069C34.1137 4.04331 33.5458 4.01713 33.0239 4.20681C32.1573 4.52244 31.6111 5.31913 31.6329 6.23669L31.6332 6.25338L31.6315 6.3735C31.6541 7.416 31.4817 8.43463 31.1191 9.40119L30.8187 10.2014L30.0109 9.92206C28.0074 9.22956 25.9306 8.95538 23.8378 9.10694L23.7109 7.35688C25.7412 7.2095 27.7574 7.42219 29.7166 7.9885C29.836 7.47131 29.8897 6.93913 29.8769 6.39806L29.8766 6.38144L29.8783 6.26075C29.8469 4.61119 30.8678 3.12483 32.4235 2.55833C33.3858 2.20831 34.4299 2.25499 35.3642 2.69079C36.2983 3.12625 37.0056 3.89606 37.3559 4.85819C37.9291 6.4325 37.4306 8.18625 36.1157 9.22188C35.6546 9.58381 35.2511 9.99975 34.9097 10.4642C36.5825 11.6313 38.0166 13.0655 39.1809 14.7369L37.7412 15.7396Z" fill="#143C8D"/>
<path d="M18.7312 25.7649C18.1656 25.7649 17.6019 25.6411 17.074 25.3949C16.1234 24.9517 15.4022 24.1646 15.0434 23.1789C14.3027 21.1441 15.3557 18.8862 17.3903 18.1456C19.4254 17.4044 21.6832 18.4581 22.4237 20.4927C22.7824 21.4784 22.7359 22.5449 22.2926 23.4956C21.8492 24.4463 21.0622 25.1674 20.0765 25.526C19.6382 25.6855 19.1841 25.7649 18.7312 25.7649ZM18.7314 19.6631C18.4851 19.6631 18.2349 19.7051 17.9905 19.7941C16.8647 20.2039 16.2822 21.4531 16.6921 22.5789C16.8905 23.1242 17.2896 23.5596 17.8156 23.8049C18.3414 24.0502 18.9316 24.076 19.4767 23.8774C20.0221 23.6787 20.4576 23.28 20.7029 22.754C20.9481 22.228 20.9739 21.638 20.7753 21.0926C20.4544 20.2115 19.6191 19.6631 18.7314 19.6631Z" fill="#143C8D"/>
<path d="M28.8477 22.083C27.2431 22.0832 25.7336 21.0919 25.1536 19.4989C24.4129 17.4641 25.4659 15.2061 27.5006 14.4656C28.4866 14.1068 29.5528 14.1534 30.5036 14.5966C31.4543 15.04 32.1754 15.8272 32.5339 16.8129C33.2747 18.8478 32.2217 21.1056 30.1869 21.846C29.7452 22.0069 29.2926 22.083 28.8477 22.083ZM28.8452 15.9819C28.5946 15.9819 28.3433 16.0258 28.1008 16.1141C26.9752 16.5239 26.3927 17.7731 26.8024 18.8989C27.2122 20.0247 28.4612 20.6071 29.5872 20.1973C30.7129 19.7876 31.2953 18.5385 30.8857 17.4127C30.6871 16.8674 30.2882 16.4318 29.7623 16.1867C29.47 16.0505 29.1582 15.9819 28.8452 15.9819Z" fill="#143C8D"/>
<path d="M21.6451 35.5176C21.0793 35.5176 20.5157 35.3938 19.9878 35.1476C19.0373 34.7045 18.316 33.9172 17.9573 32.9316C17.2165 30.8968 18.2695 28.6389 20.3041 27.8983C22.3394 27.1574 24.5971 28.2106 25.3376 30.2454C26.0782 32.2804 25.0251 34.5383 22.9904 35.2787C22.5521 35.4382 22.0979 35.5176 21.6451 35.5176ZM21.6451 29.4156C21.3988 29.4156 21.1486 29.4576 20.9041 29.5466C19.7783 29.9564 19.1959 31.2056 19.6057 32.3314C19.8043 32.8767 20.2033 33.3121 20.7291 33.5574C21.2553 33.8027 21.8451 33.8285 22.3903 33.6299C23.5162 33.2202 24.0986 31.9709 23.689 30.8451C23.3683 29.964 22.533 29.4156 21.6451 29.4156Z" fill="#143C8D"/>
<path d="M31.7551 31.8373C31.1893 31.8373 30.6258 31.7135 30.0979 31.4673C29.1472 31.0241 28.4261 30.237 28.0673 29.2513C27.3268 27.2165 28.3796 24.9585 30.4146 24.218C32.4492 23.4769 34.7075 24.5303 35.4477 26.5651C35.8065 27.5507 35.76 28.6172 35.3168 29.568C34.8735 30.5187 34.0863 31.2398 33.1006 31.5984C32.6624 31.7578 32.2081 31.8373 31.7551 31.8373ZM31.7553 25.7354C31.5092 25.7354 31.259 25.7775 31.0144 25.8665C29.8886 26.2763 29.3061 27.5255 29.7158 28.6513C30.1256 29.7771 31.3749 30.3592 32.5006 29.9497C33.0459 29.7511 33.4815 29.3523 33.7266 28.8264C33.9717 28.3004 33.9977 27.7105 33.7991 27.1649C33.4786 26.2838 32.6433 25.7354 31.7553 25.7354Z" fill="#143C8D"/>
</svg>
