<svg id="Icones" xmlns="http://www.w3.org/2000/svg" viewBox="0 0 400 400"><defs><style>.cls-1{fill:#003d8d;}</style></defs><g id="Novidades"><path class="cls-1" d="M258,225c-2.65,0-4.55-.54-5.34-1.53a3.65,3.65,0,0,1-.63-2.3,4.35,4.35,0,0,0,.21-1.36V185.89c0-14.89-4.49-26.69-13.36-35.07a47.14,47.14,0,0,0-20.28-10.94c.45-4.36.22-10.76-3.6-15.79-3.42-4.53-8.81-6.82-16-6.82-8.78,0-13.23,3.68-15.42,6.77-3.77,5.33-3.47,12.23-2.64,16.87-9.91,2.91-17.78,7.8-23.53,14.63-14.82,17.63-11.35,43.31-9.68,55.65.32,2.41.6,4.49.6,5.48,0,2.2.11,3.91.2,5.29l0,.45c-1,0-2.21,0-3.42,0-9.9,0-19.89,6.15-19.89,19.89,0,15.73,13.85,19.89,21.17,19.89h27.63a23,23,0,0,0,5.35,13c4.41,5,11,7.53,19.6,7.53,18.44,0,25.41-11.68,27.13-20.52h29.3c7.76,0,12.23-2.81,14.61-5.17a16.63,16.63,0,0,0,4.71-12C274.75,235.58,267.87,225,258,225Zm-67.07-95.76c1.39-2,4.11-3,8.07-3,4.21,0,7.18,1.09,8.82,3.23,1.77,2.33,2.06,5.82,1.88,8.68a54.51,54.51,0,0,0-8.34-.39,94.31,94.31,0,0,0-11.61,1.15C189.24,135.79,189.14,131.76,190.93,129.24ZM199,273.73c-5.86,0-10.17-1.49-12.81-4.44a13.57,13.57,0,0,1-3.08-7.08h33.73C215.41,267,211.22,273.73,199,273.73Zm64.7-23.08c-1.69,1.68-4.55,2.56-8.27,2.56h-109c-1.24,0-12.17-.3-12.17-10.89,0-9.83,7.62-10.89,10.89-10.89,5.68,0,8.53,0,10.71-2.32,2-2.14,1.85-4.72,1.66-7.71-.08-1.26-.18-2.82-.18-4.73a56.41,56.41,0,0,0-.68-6.68c-1.61-11.91-4.61-34.07,7.65-48.66,5-6,12.33-10.15,21.75-12.47a2.71,2.71,0,0,0,.41,0,4.58,4.58,0,0,0,1.49-.26,4.52,4.52,0,0,0,.8-.38,83.2,83.2,0,0,1,13-1.47h.08s.4,0,1.07,0a52.76,52.76,0,0,1,8.28.71A4.33,4.33,0,0,0,214,148c6,1.32,13,4,18.69,9.34,7,6.61,10.54,16.21,10.54,28.53V218.8a13.15,13.15,0,0,0,2.3,10.18c2.6,3.33,6.79,5,12.46,5,3.84,0,7.75,5.59,7.75,11.08A7.76,7.76,0,0,1,263.7,250.65Z"/><path class="cls-1" d="M246.5,144.05c.15,0,15,5.09,17.27,34.49a4.5,4.5,0,0,0,4.48,4.16l.35,0a4.5,4.5,0,0,0,4.15-4.83c-2.78-36-22.92-42.21-23.77-42.45a4.5,4.5,0,1,0-2.48,8.65Z"/><path class="cls-1" d="M132,182.68l.35,0a4.5,4.5,0,0,0,4.48-4.16c2.25-29.22,16.58-34.26,17.33-34.51a4.5,4.5,0,0,0-2.53-8.63c-.86.24-21,6.4-23.77,42.45A4.49,4.49,0,0,0,132,182.68Z"/></g></svg>