<svg id="Icones" xmlns="http://www.w3.org/2000/svg" viewBox="0 0 400 400"><defs><style>.cls-1{fill:#003d8d;}</style></defs><g id="Sreviços_Farmacêuticos" data-name="Sreviços Farmacêuticos"><path class="cls-1" d="M282.84,137.24H117.16A29.69,29.69,0,0,0,87.5,166.9V269.57a29.7,29.7,0,0,0,29.66,29.67H282.84a29.7,29.7,0,0,0,29.66-29.67V166.9A29.69,29.69,0,0,0,282.84,137.24ZM302.5,269.57a19.69,19.69,0,0,1-19.66,19.67H117.16A19.69,19.69,0,0,1,97.5,269.57V166.9a19.68,19.68,0,0,1,19.66-19.66H282.84A19.68,19.68,0,0,1,302.5,166.9Z"/><path class="cls-1" d="M154,110.76h92a5,5,0,0,0,0-10H154a5,5,0,0,0,0,10Z"/><path class="cls-1" d="M225.83,206.47H211.77V192.41a5.56,5.56,0,0,0-5.57-5.56H193.8a5.56,5.56,0,0,0-5.57,5.56v14.06H174.17a5.56,5.56,0,0,0-5.56,5.56v12.41a5.56,5.56,0,0,0,5.56,5.56h14.06v14.06a5.56,5.56,0,0,0,5.57,5.56h12.4a5.56,5.56,0,0,0,5.57-5.56V230h14.06a5.56,5.56,0,0,0,5.56-5.56V212A5.56,5.56,0,0,0,225.83,206.47Z"/></g></svg>