<svg id="Icones" xmlns="http://www.w3.org/2000/svg" viewBox="0 0 400 400"><defs><style>.cls-1{fill:#003d8d;}</style></defs><g id="Teste_Covid" data-name="Teste Covid"><path class="cls-1" d="M275,197h-7.59c-1.43-7.69-6-26.38-18-41.51l6.76-6a4,4,0,1,0-5.32-6l-6.79,6a56.42,56.42,0,0,0-10.86-8.38,55.43,55.43,0,0,0-28.69-7.51V124.5a4,4,0,0,0-8,0v9.62a103.48,103.48,0,0,0-27,7.17,4,4,0,1,0,3,7.42c22.75-9.16,41.8-9.38,56.6-.67C255,163.26,260,201.11,260,201.49a4,4,0,0,0,4,3.51h11a4,4,0,0,0,0-8Z"/><path class="cls-1" d="M133,148a4,4,0,0,0,2.83-1.17l12-12a4,4,0,0,0-5.66-5.66l-12,12A4,4,0,0,0,133,148Z"/><path class="cls-1" d="M264.67,251.67l-12,12a4,4,0,0,0,5.66,5.66l12-12a4,4,0,0,0-5.66-5.66Z"/><path class="cls-1" d="M114.5,188.5a4,4,0,0,0-4,4v15a4,4,0,0,0,8,0v-15A4,4,0,0,0,114.5,188.5Z"/><path class="cls-1" d="M285.5,188.5a4,4,0,0,0-4,4v15a4,4,0,0,0,8,0v-15A4,4,0,0,0,285.5,188.5Z"/><path class="cls-1" d="M207.5,281.5h-15a4,4,0,0,0,0,8h15a4,4,0,0,0,0-8Z"/><path class="cls-1" d="M192.5,118.5h15a4,4,0,0,0,0-8h-15a4,4,0,0,0,0,8Z"/><path class="cls-1" d="M262.67,147.33a4,4,0,0,0,5.66-5.66l-11-11a4,4,0,0,0-5.66,5.66Z"/><path class="cls-1" d="M136.33,251.67a4,4,0,0,0-5.66,5.66l11,11a4,4,0,1,0,5.66-5.66Z"/><path class="cls-1" d="M167.5,227.5a11,11,0,1,0,11-11A11,11,0,0,0,167.5,227.5Zm14,0a3,3,0,1,1-3-3A3,3,0,0,1,181.5,227.5Z"/><path class="cls-1" d="M202,215.89c-1.91,5.91-.78,12.57,3.15,18.76s11.82,10.29,19.38,10.29a20.1,20.1,0,0,0,4.31-.46c8.52-1.86,14.22-8.95,15.65-19.44a4,4,0,0,0-7.92-1.08c-1,7.17-4.25,11.57-9.44,12.71a15.24,15.24,0,0,1-15.22-6.32c-2.68-4.2-3.47-8.35-2.3-12s4.13-6.42,8.41-8.14a13.09,13.09,0,0,1,12.93,1.35,4,4,0,0,0,5.18-6.1A21,21,0,0,0,215,202.79C208.48,205.4,203.85,210.05,202,215.89Z"/><path class="cls-1" d="M174.83,167a4,4,0,0,0,1-8,19.82,19.82,0,0,0-18,8.85c-3.77,5.44-5,11.51-3.44,17.08s5.91,10.28,12.21,13.09a20,20,0,0,0,8.19,1.68,22,22,0,0,0,15.52-6.25c5.73-5.9,6.54-14.43,2.22-23.4a4,4,0,1,0-7.21,3.47c2.87,5.94,2.61,10.9-.75,14.36a13.84,13.84,0,0,1-14.7,2.84c-4.15-1.85-6.84-4.6-7.77-7.94s-.09-6.92,2.3-10.37A11.91,11.91,0,0,1,174.83,167Z"/><path class="cls-1" d="M228.21,183a4,4,0,0,0,5.65,0,13.81,13.81,0,0,0,2.84-13.7,14,14,0,0,0-8-9.11c-3.79-1.53-8.17-1.14-12.34,1.11a15,15,0,0,0-7.52,14.92c.82,5.71,5.13,9.81,11.83,11.22a4,4,0,1,0,1.66-7.82c-3.37-.71-5.24-2.24-5.57-4.54a7.07,7.07,0,0,1,3.39-6.74c2.07-1.11,4-1.36,5.55-.73a6.24,6.24,0,0,1,3.34,4.11,5.84,5.84,0,0,1-.94,5.69A4,4,0,0,0,228.21,183Z"/><path class="cls-1" d="M252.5,256.5a4,4,0,0,0,2.83-6.83l-4.48-4.48a66.63,66.63,0,0,0,15-25,4,4,0,0,0-7.62-2.4c-6.3,19.94-25.89,37.29-47.63,42.18-19.61,4.41-38.43-1.68-53.1-17.15-.05-.05-.08-.11-.13-.16l-.1-.08-.3-.31c-15.49-16.68-20.09-35.86-13.68-57A83.93,83.93,0,0,1,158,157.63a4,4,0,0,0,0-5.29l-8-9a4,4,0,0,0-6,5.32l5.77,6.48a92.56,92.56,0,0,0-14.11,27.53,72.35,72.35,0,0,0-2.83,13.83H126.5a4,4,0,0,0,0,8h6c.27,12.64,4.41,26.9,16.45,40.87l-4.3,4.3a4,4,0,0,0,5.66,5.66l4.16-4.16c12.16,11.58,26.61,17.79,42,18.19v4.14a4,4,0,0,0,8,0v-4.44a67.15,67.15,0,0,0,7.81-1.27,75.64,75.64,0,0,0,32.8-17l4.56,4.57A4,4,0,0,0,252.5,256.5Z"/></g></svg>