<svg id="Icones" xmlns="http://www.w3.org/2000/svg" viewBox="0 0 400 400"><defs><style>.cls-1{fill:#003d8d;}</style></defs><g id="Testes_Genétios" data-name="Testes Genétios"><path class="cls-1" d="M226.34,174c7.45,17.38,7.57,32.77.35,43.35-7.55,11.05-22.9,16.78-43.21,16.13a4,4,0,0,0-4.13,3.87,4,4,0,0,0,3.87,4.12c23.15.75,40.93-6.22,50.08-19.61,8.82-12.92,9-31,.39-51-15.63-36.47,6.67-59.66,7.65-60.65a4,4,0,0,0-5.67-5.65,57.1,57.1,0,0,0-11.52,19.1C220,134.68,217.05,152.35,226.34,174Z"/><path class="cls-1" d="M171.41,226c-7.45-17.38-7.57-32.77-.35-43.35,7.55-11.05,22.9-16.78,43.22-16.13a4,4,0,0,0,.25-8c-23.15-.75-40.93,6.22-50.08,19.61-8.82,12.92-8.95,31-.39,51,15.63,36.47-6.66,59.66-7.65,60.65a4,4,0,0,0,5.67,5.65,57.1,57.1,0,0,0,11.52-19.1C177.73,265.32,180.7,247.65,171.41,226Z"/><path class="cls-1" d="M244.34,170.67a4,4,0,0,0-3.72,6.73,4,4,0,0,0,1.94,1.07c33.17,7.54,52-15.26,52.8-16.24a4,4,0,0,0-6.22-5C288.47,158,272.51,177.07,244.34,170.67Z"/><path class="cls-1" d="M155.66,230.16a4,4,0,1,0,1.77-7.8c-33.16-7.54-52,15.27-52.79,16.24a4,4,0,0,0,.29,5.33l.31.28a4,4,0,0,0,5.62-.58C111.53,242.82,127.48,223.76,155.66,230.16Z"/><path class="cls-1" d="M240.27,124.72l36.06,36.06a4,4,0,0,0,5.66-5.65l-36.06-36.07a4,4,0,0,0-5.66,5.66Z"/><path class="cls-1" d="M179.46,179.88a4,4,0,0,0,0,5.65l36.06,36.06a4,4,0,0,0,5.66-5.65l-36.07-36.06A4,4,0,0,0,179.46,179.88Z"/><path class="cls-1" d="M159,278.16,122.89,242.1a4,4,0,0,0-5.66,5.66l36.06,36.06a4,4,0,1,0,5.66-5.66Z"/><path class="cls-1" d="M261.13,168.21a4,4,0,0,0,0-5.66L238.5,139.92a4,4,0,0,0-5.66,5.66l22.63,22.63A4,4,0,0,0,261.13,168.21Z"/><path class="cls-1" d="M221.53,202.15a4,4,0,0,0,5.66-5.66l-22.63-22.63a4,4,0,0,0-5.66,5.66Z"/><path class="cls-1" d="M172.74,205.68l22.63,22.63a4,4,0,0,0,5.65-5.65L178.4,200a4,4,0,1,0-5.66,5.65Z"/><path class="cls-1" d="M137.38,235.38a4,4,0,0,0,0,5.66L160,263.67a4,4,0,1,0,5.66-5.66L143,235.38A4,4,0,0,0,137.38,235.38Z"/></g></svg>