<svg id="Icones" xmlns="http://www.w3.org/2000/svg" viewBox="0 0 400 400"><defs><style>.cls-1{fill:#003d8d;}</style></defs><g id="Vacinas"><path class="cls-1" d="M255.09,185.86l-20.7-13.7,23.74-35.87,6.21,4.11a4.14,4.14,0,0,0,4.57-6.9l-9.66-6.39-24.15-16-9.66-6.39a4.13,4.13,0,1,0-4.56,6.89l6.21,4.11-23.74,35.88L184,138.83a4.14,4.14,0,0,0-4.57,6.9l11.3,7.48a14.77,14.77,0,0,0-4.91,4.61l-6.36,9.61a4.27,4.27,0,0,0-1.33,1.25,4.09,4.09,0,0,0-.63,1.71l-12.2,18.43a4,4,0,0,0-2,3l-10,15.13a14.84,14.84,0,0,0-.19,16l-8,12.16a12.42,12.42,0,0,0,3.5,17.2l4.14,2.74-22.83,34.49a4.14,4.14,0,0,0,6.9,4.57l22.82-34.5,3.45,2.29a12.44,12.44,0,0,0,17.2-3.5l8.16-12.33a14.86,14.86,0,0,0,14.23-6.51l32.48-49.08a14.69,14.69,0,0,0,2.33-6.33l13,8.62a4.14,4.14,0,0,0,4.57-6.9Zm-3.86-54.14L227.49,167.6l-17.25-11.42L234,120.31ZM173.4,253.82a4.14,4.14,0,0,1-5.73,1.17l-14.49-9.59a4.14,4.14,0,0,1-1.16-5.73l7.3-11,21.39,14.15Zm54.87-67.92L195.79,235a6.56,6.56,0,0,1-9.09,1.85l-24.59-16.27a6.58,6.58,0,0,1-1.85-9.09L169,198.31l13.45,8.9a4.14,4.14,0,1,0,4.57-6.9l-13.45-8.9,9.58-14.49,12.08,8a4.13,4.13,0,1,0,4.56-6.89l-12.07-8,5.06-7.64a6.56,6.56,0,0,1,9.09-1.85l.39.26,24.14,16,0,0A6.56,6.56,0,0,1,228.27,185.9Z"/></g></svg>